<svg id="Layer_1" data-name="Layer 1" xmlns="http://www.w3.org/2000/svg" viewBox="0 0 252.42 50.55"><defs><style>.cls-1{fill:#fff;}</style></defs><path class="cls-1" d="M69.75,5.87c-2.38-.29-4.47-.64-6.56-.78a80.24,80.24,0,0,0-14.13.26A72.58,72.58,0,0,0,32.53,9.43a39.74,39.74,0,0,0-12.15,6.74A26.85,26.85,0,0,0,14.1,23.3a49.62,49.62,0,0,0-2.92,5.35A37.48,37.48,0,0,0,8.33,44c0,.71,0,1.41,0,2.1,5.32,1.26,11.32-.06,14.29-4.82,1.35-2.16,2.54-4.42,3.82-6.62,1.54-2.65,3-5.33,4.67-7.93s3.17-5,4.93-7.32c2.31-3.11,5.6-5.2,9.17-6.93a1.55,1.55,0,0,1,1-.24c-.61.42-1.22.87-1.85,1.27a24.39,24.39,0,0,0-6.92,6.69A16.34,16.34,0,0,0,36,22.73c-2.72,5.78-5.5,11.53-8.07,17.37s-7.11,9-13.57,10.36a1.38,1.38,0,0,0-.34.12,3.47,3.47,0,0,0-.32.26,18,18,0,0,0,2.94,1.09,63.64,63.64,0,0,0,8.48,1.28A17.1,17.1,0,0,0,38.6,47.82a22.94,22.94,0,0,0,6-10.11c.89-3.2,1.87-6.37,2.91-9.52A56.35,56.35,0,0,1,50.2,21a25.2,25.2,0,0,1,9.2-10.07,41.81,41.81,0,0,1,9.73-4.68A3.89,3.89,0,0,0,69.75,5.87Z" transform="translate(-8.33 -2.69)"/><path class="cls-1" d="M72,17.38a21.91,21.91,0,0,1,14.47,5.11V48H78.74V42.73a10.11,10.11,0,0,1-9,5.68c-8.56,0-13.39-6.33-13.39-15.19S62,17.38,72,17.38Zm-.79,24.41c4.6,0,7.49-4.18,7.49-11.59V25.52a11.35,11.35,0,0,0-6.34-1.66c-5.4,0-8.07,4.32-8.07,9.43C64.33,38,66.35,41.79,71.25,41.79Z" transform="translate(-8.33 -2.69)"/><path class="cls-1" d="M98.39,12.48c-2.52,0-4.61-1.51-4.61-4.1s2.09-3.89,4.61-3.89,4.61,1.44,4.61,4S101,12.48,98.39,12.48Zm-4,5.4h7.92V48H94.43Z" transform="translate(-8.33 -2.69)"/><path class="cls-1" d="M118.12,38V48h-7.85V17.88h7.85v4.76c.65-2.31,3.6-5.12,7.63-5.26a9.74,9.74,0,0,1,2,0c-.29,1.44-.8,5.69-1.08,7.13C119.13,24.36,118.12,30,118.12,38Z" transform="translate(-8.33 -2.69)"/><path class="cls-1" d="M145,17.38a22,22,0,0,1,14.48,5.11V48h-7.78V42.73a10.09,10.09,0,0,1-9,5.68c-8.57,0-13.39-6.33-13.39-15.19S134.89,17.38,145,17.38Zm-.79,24.41c4.61,0,7.49-4.18,7.49-11.59V25.52a11.32,11.32,0,0,0-6.34-1.66c-5.4,0-8.06,4.32-8.06,9.43C137.27,38,139.29,41.79,144.18,41.79Z" transform="translate(-8.33 -2.69)"/><path class="cls-1" d="M187.45,31.92c0-5.25-1.51-8.06-5.69-8.06s-6.84,4-6.84,9.43V48h-7.84V17.88h7.84v4.61a10.84,10.84,0,0,1,9-5.11c7.93,0,11.53,4.82,11.53,14.18V48h-8Z" transform="translate(-8.33 -2.69)"/><path class="cls-1" d="M201.42,33.22c0-8.71,5.47-15.77,14.4-15.77a18.43,18.43,0,0,1,7.85,1.95v-15l7.78-1.66c.07.07,0,14.9,0,45.29h-7.78V42.8a10.41,10.41,0,0,1-9.22,5.61C206.17,48.41,201.42,42.08,201.42,33.22Zm14.69,8.57c4.46,0,7.56-4.18,7.56-11.59V26.09a10.74,10.74,0,0,0-6.48-2.23c-5,0-7.78,4.32-7.78,9.43C209.41,38,211.36,41.79,216.11,41.79Z" transform="translate(-8.33 -2.69)"/><path class="cls-1" d="M249.23,23.5c-2.16,0-3.6,1-3.6,2.52,0,4.9,15.12,2.66,15.12,13,0,5.69-4.68,9.44-11.81,9.44a22.17,22.17,0,0,1-12.31-3.82l3.88-5.4a15.55,15.55,0,0,0,7.93,2.88c2.52,0,4.32-1.08,4.32-2.95C252.76,33.87,238,36.53,238,26c0-5.33,4.25-8.64,10.88-8.64a20.22,20.22,0,0,1,10,2.81l-1.23,6.12A16.4,16.4,0,0,0,249.23,23.5Z" transform="translate(-8.33 -2.69)"/></svg>