<svg id="Layer_1" data-name="Layer 1" xmlns="http://www.w3.org/2000/svg" viewBox="0 0 1025.17 1025"><defs><style>.cls-1{fill:#7fcbad;stroke:#000;stroke-miterlimit:10;}.cls-2{fill:none;}.cls-3{fill:#fff;}</style></defs><rect class="cls-1" x="0.5" y="0.5" width="1024" height="1024"/><path class="cls-1" d="M617,285" transform="translate(0.67 -0.5)"/><rect id="_Slice_" data-name="&lt;Slice&gt;" class="cls-2" x="25.17" y="30" width="1000" height="800"/><path class="cls-3" d="M405.29,385c-44.47-14.27-84.82-2.41-87.7,48.27a.05.05,0,0,0,0,0c28.89,11.92,35.84-39.39,64.17-43,0,0,.06.06,0,.07-26.53,9.29-26.24,49.89-57,51.26a0,0,0,0,0,0,.07c38.6,19.94,46.53-9.17,61.56-37.34,6.06-10.56,7.85-16.08,18.94-19.25A0,0,0,0,0,405.29,385Z" transform="translate(0.67 -0.5)"/><path class="cls-3" d="M416.92,394.6a33.44,33.44,0,0,1,22.13,7.82v39H427.16v-8c-1.87,3.41-6,8.7-13.77,8.7-13.1,0-20.48-9.69-20.48-23.24S401.5,394.6,416.92,394.6Zm-1.21,37.33c7,0,11.45-6.39,11.45-17.73V407a17.42,17.42,0,0,0-9.69-2.53c-8.26,0-12.34,6.6-12.34,14.42C405.13,426.2,408.22,431.93,415.71,431.93Z" transform="translate(0.67 -0.5)"/><path class="cls-3" d="M457.21,387.11c-3.85,0-7-2.31-7-6.28,0-3.74,3.19-5.94,7-5.94s7.05,2.2,7.05,6.05S461.18,387.11,457.21,387.11Zm-6,8.26h12.11v46H451.16Z" transform="translate(0.67 -0.5)"/><path class="cls-3" d="M487.38,426.09V441.4h-12v-46h12v7.27c1-3.53,5.51-7.82,11.68-8a14.41,14.41,0,0,1,3.08,0c-.44,2.2-1.21,8.7-1.65,10.9C488.92,405.28,487.38,413.87,487.38,426.09Z" transform="translate(0.67 -0.5)"/><path class="cls-3" d="M528.45,394.6a33.48,33.48,0,0,1,22.14,7.82v39h-11.9v-8c-1.87,3.41-5.94,8.7-13.76,8.7-13.1,0-20.48-9.69-20.48-23.24S513,394.6,528.45,394.6Zm-1.21,37.33c7,0,11.45-6.39,11.45-17.73V407a17.39,17.39,0,0,0-9.69-2.53c-8.26,0-12.33,6.6-12.33,14.42C516.67,426.2,519.75,431.93,527.24,431.93Z" transform="translate(0.67 -0.5)"/><path class="cls-3" d="M593.41,416.84c0-8-2.31-12.33-8.7-12.33-6.6,0-10.46,6.16-10.46,14.42V441.4h-12v-46h12v7.05A16.57,16.57,0,0,1,588,394.6c12.11,0,17.62,7.38,17.62,21.69V441.4H593.41Z" transform="translate(0.67 -0.5)"/><path class="cls-3" d="M614.77,418.82c0-13.32,8.37-24.11,22-24.11a28.3,28.3,0,0,1,12,3v-23l11.89-2.54c.11.11,0,22.8,0,69.27H648.8v-7.93a15.91,15.91,0,0,1-14.1,8.59C622,442.06,614.77,432.37,614.77,418.82Zm22.46,13.11c6.83,0,11.57-6.39,11.57-17.73v-6.28a16.42,16.42,0,0,0-9.91-3.41c-7.71,0-11.9,6.6-11.9,14.42C627,426.2,630,431.93,637.23,431.93Z" transform="translate(0.67 -0.5)"/><path class="cls-3" d="M687.88,404c-3.3,0-5.5,1.54-5.5,3.85,0,7.49,23.12,4.08,23.12,19.93,0,8.7-7.16,14.43-18.06,14.43a33.89,33.89,0,0,1-18.83-5.84l5.95-8.26c3.74,2.54,8.37,4.41,12.11,4.41s6.61-1.65,6.61-4.52c0-8.15-22.58-4.07-22.58-20.26,0-8.15,6.5-13.21,16.63-13.21a31,31,0,0,1,15.31,4.29l-1.87,9.36A25.22,25.22,0,0,0,687.88,404Z" transform="translate(0.67 -0.5)"/></svg>