<svg id="Layer_1" data-name="Layer 1" xmlns="http://www.w3.org/2000/svg" viewBox="0 0 1024 1024"><defs><style>.cls-1{fill:#7fcbad;}.cls-2{fill:#fff;}</style></defs><rect class="cls-1" width="1024" height="1024"/><path class="cls-2" d="M897.07,284.42c-363.23-116.6-692.76-19.74-716.3,394.23a.34.34,0,0,0,.21.33C417,776.39,473.79,357.27,705.12,327.4a.33.33,0,0,1,.15.64C488.52,403.86,490.93,735.55,239.65,746.69a.32.32,0,0,0-.13.6c315.22,162.88,380.06-74.93,502.8-305C791.84,356.05,806.48,311,897.06,285A.33.33,0,0,0,897.07,284.42Z"/></svg>