<svg id="Layer_1" data-name="Layer 1" xmlns="http://www.w3.org/2000/svg" viewBox="0 0 401 128"><defs><style>.cls-1{fill:#7fcbad;}.cls-2{fill:#fff;}</style></defs><rect class="cls-1" width="401" height="128"/><path class="cls-2" d="M132.39,47.59c-28.23-9.07-53.84-1.54-55.67,30.64,0,0,0,0,0,0,18.35,7.58,22.76-25,40.74-27.32,0,0,0,0,0,0-16.85,5.89-16.66,31.67-36.2,32.54a0,0,0,0,0,0,0c24.51,12.66,29.54-5.82,39.09-23.7,3.84-6.71,5-10.21,12-12.23A0,0,0,1,0,132.39,47.59Z" transform="translate(0 0)"/><path class="cls-2" d="M139.78,53.69a21.26,21.26,0,0,1,14.05,5V83.4h-7.55V78.3a9.79,9.79,0,0,1-8.74,5.52c-8.32,0-13-6.15-13-14.75S130,53.69,139.78,53.69ZM139,77.39c4.47,0,7.27-4,7.27-11.25V61.59A11,11,0,0,0,140.13,60c-5.25,0-7.83,4.2-7.83,9.16C132.3,73.76,134.26,77.39,139,77.39Z" transform="translate(0 0)"/><path class="cls-2" d="M165.36,48.94c-2.44,0-4.47-1.47-4.47-4s2-3.77,4.47-3.77,4.48,1.39,4.48,3.84S167.88,48.94,165.36,48.94Zm-3.84,5.24h7.69V83.4h-7.69Z" transform="translate(0 0)"/><path class="cls-2" d="M184.52,73.69V83.4H176.9V54.18h7.62v4.61c.63-2.23,3.49-5,7.41-5.1a9.17,9.17,0,0,1,2,0c-.28,1.4-.77,5.52-1,6.92C185.5,60.47,184.52,65.93,184.52,73.69Z" transform="translate(0 0)"/><path class="cls-2" d="M210.59,53.69a21.3,21.3,0,0,1,14.06,5V83.4h-7.56V78.3a9.78,9.78,0,0,1-8.73,5.52c-8.32,0-13-6.15-13-14.75S200.8,53.69,210.59,53.69Zm-.77,23.7c4.48,0,7.27-4,7.27-11.25V61.59A11,11,0,0,0,210.94,60c-5.24,0-7.83,4.2-7.83,9.16C203.11,73.76,205.07,77.39,209.82,77.39Z" transform="translate(0 0)"/><path class="cls-2" d="M251.84,67.81c0-5.1-1.47-7.83-5.53-7.83s-6.64,3.92-6.64,9.16V83.4h-7.62V54.18h7.62v4.47a10.54,10.54,0,0,1,8.74-5c7.69,0,11.19,4.68,11.19,13.77V83.4h-7.76Z" transform="translate(0 0)"/><path class="cls-2" d="M265.4,69.07c0-8.46,5.31-15.31,14-15.31A17.94,17.94,0,0,1,287,55.65V41l7.55-1.61c.07.07,0,14.47,0,44H287v-5a10.09,10.09,0,0,1-8.95,5.45C270,83.82,265.4,77.67,265.4,69.07Zm14.26,8.32c4.33,0,7.34-4,7.34-11.25v-4A10.41,10.41,0,0,0,280.71,60c-4.9,0-7.55,4.2-7.55,9.16C273.16,73.76,275,77.39,279.66,77.39Z" transform="translate(0 0)"/><path class="cls-2" d="M311.81,59.63c-2.09,0-3.49,1-3.49,2.45,0,4.75,14.68,2.59,14.68,12.65,0,5.53-4.54,9.16-11.47,9.16a21.6,21.6,0,0,1-11.95-3.7l3.77-5.25a15,15,0,0,0,7.7,2.8c2.44,0,4.19-1,4.19-2.87,0-5.17-14.33-2.58-14.33-12.86,0-5.17,4.12-8.39,10.55-8.39a19.61,19.61,0,0,1,9.72,2.73L320,62.29A15.94,15.94,0,0,0,311.81,59.63Z" transform="translate(0 0)"/></svg>